<?xml version="1.0" standalone="no"?>
<!DOCTYPE svg PUBLIC "-//W3C//DTD SVG 20010904//EN"
 "http://www.w3.org/TR/2001/REC-SVG-20010904/DTD/svg10.dtd">
<svg version="1.0" xmlns="http://www.w3.org/2000/svg"
 width="250.000000pt" height="250.000000pt" viewBox="0 0 250.000000 250.000000"
 preserveAspectRatio="xMidYMid meet">
<metadata>
Created by potrace 1.14, written by Peter Selinger 2001-2017
</metadata>
<g transform="translate(0.000000,250.000000) scale(0.100000,-0.100000)"
fill="#000000" stroke="none">
<path d="M162 1849 c-48 -24 -64 -58 -63 -133 0 -57 15 -96 50 -132 11 -12 17
-25 13 -29 -4 -4 -2 -6 3 -5 22 5 36 -1 29 -12 -5 -8 -2 -9 10 -5 9 4 14 3 11
-2 -3 -5 4 -12 15 -16 11 -3 20 -11 20 -16 0 -5 7 -9 15 -9 9 0 12 -6 8 -17
-4 -10 -2 -14 4 -10 6 4 11 -4 11 -21 0 -26 -13 -52 -28 -52 -7 0 -8 4 -13 55
-6 57 -11 60 -83 57 l-66 -4 6 -66 c3 -37 6 -68 6 -70 1 -14 75 -73 95 -74 14
-1 25 -6 25 -10 0 -4 3 -7 8 -7 21 4 34 -3 29 -15 -4 -10 0 -12 14 -9 11 3 22
9 25 14 9 15 24 10 24 -8 1 -12 6 -7 15 12 7 17 14 26 14 21 1 -5 9 -2 18 5
14 12 16 12 8 0 -6 -11 -4 -13 9 -8 10 4 22 7 28 7 6 0 7 7 4 16 -5 12 -2 15
10 10 13 -5 14 -3 6 7 -11 13 -11 41 1 53 3 4 5 -3 2 -14 -2 -11 2 -26 10 -32
10 -9 13 -7 10 7 -2 10 -4 20 -5 23 -1 3 -2 13 -1 22 2 13 -3 16 -16 12 -10
-3 -14 -2 -8 3 12 10 13 33 1 52 -6 10 -5 12 2 7 7 -4 12 -2 12 3 0 6 -5 11
-11 11 -6 0 -3 7 5 16 21 21 20 30 -2 13 -9 -7 -14 -10 -10 -5 3 4 0 19 -7 33
-8 15 -12 30 -9 35 3 5 1 7 -4 6 -5 -2 -18 6 -28 18 -11 11 -45 39 -76 62 -56
41 -70 64 -48 77 6 4 7 12 4 18 -4 7 -3 9 1 4 12 -11 14 -47 2 -40 -6 3 -7 1
-3 -5 4 -7 16 -12 26 -12 10 0 22 -5 26 -12 5 -8 2 -9 -10 -5 -11 4 -15 3 -11
-4 4 -6 13 -8 20 -5 8 3 16 0 19 -7 3 -7 3 -1 0 12 -4 16 -3 21 5 17 6 -4 11
-17 11 -29 1 -21 1 -21 16 3 8 14 13 17 10 8 -3 -10 -2 -18 2 -19 4 0 14 -2
24 -4 12 -2 15 3 13 21 -1 14 2 27 8 31 6 3 7 1 3 -5 -4 -7 -3 -12 3 -12 6 0
8 -8 5 -17 -5 -17 -5 -17 6 0 6 9 16 14 22 11 7 -4 8 -2 4 5 -4 6 -12 9 -17 6
-5 -4 -9 3 -9 15 0 12 5 18 10 15 6 -3 10 -1 10 4 0 15 -27 14 -34 -1 -3 -7
-3 1 -1 17 5 36 -22 86 -61 112 -41 26 -150 27 -202 2z m243 -178 c3 -5 2 -12
-3 -15 -5 -3 -9 1 -9 9 0 17 3 19 12 6z"/>
<path d="M444 1830 c2 -16 1 -30 -3 -30 -3 0 -6 -13 -6 -28 0 -23 4 -28 18
-24 9 2 18 -1 18 -7 3 -25 4 -30 10 -36 4 -3 6 3 5 14 0 11 4 20 9 20 6 0 8
-8 7 -17 -3 -13 -1 -14 11 -4 13 11 15 -15 16 -200 1 -117 4 -214 6 -216 2 -3
18 -5 34 -6 31 -1 65 -23 37 -23 -8 0 -13 4 -10 9 9 14 -13 9 -26 -7 -11 -13
-10 -14 6 -8 17 6 18 5 4 -13 -14 -18 -14 -18 5 -3 11 9 31 15 45 13 17 -3 21
-1 12 5 -11 7 -11 9 2 14 8 3 18 1 22 -5 4 -7 3 -8 -4 -4 -8 5 -10 1 -5 -10 4
-11 8 -13 11 -6 2 7 8 10 13 6 13 -8 11 10 -2 23 -9 9 -7 11 8 7 12 -3 25 2
34 13 13 17 13 17 -4 4 -15 -12 -20 -12 -30 -1 -9 9 -9 11 0 6 6 -3 14 -2 18
4 3 5 2 10 -3 10 -14 0 -22 39 -10 47 7 4 8 1 3 -8 -8 -12 -6 -12 8 0 20 16
22 22 6 19 -6 -2 -14 3 -17 11 -2 8 0 11 5 8 5 -3 10 1 10 9 0 8 -5 13 -11 11
-7 -3 -11 8 -11 28 0 18 3 31 8 28 4 -2 7 3 7 12 0 10 -5 13 -12 9 -7 -4 -8
-3 -4 5 4 6 12 8 18 5 5 -4 2 6 -7 20 -10 15 -14 26 -9 25 19 -3 29 2 17 9
-15 10 -25 62 -11 62 5 0 7 -7 4 -16 -3 -9 -2 -12 4 -9 10 6 4 90 -8 110 -3 6
2 4 11 -4 15 -12 17 -12 11 4 -5 12 -4 16 3 12 6 -4 16 0 23 8 9 11 16 12 25
5 9 -8 15 -8 20 0 3 5 2 10 -3 10 -5 0 -9 12 -10 28 0 15 -2 38 -4 52 l-3 25
-162 3 -163 2 4 -30z"/>
<path d="M793 1831 c-6 -17 -7 -29 -2 -25 12 7 11 -3 -1 -26 -6 -10 -6 -21 -2
-24 5 -3 9 -105 10 -227 2 -122 5 -225 8 -230 2 -4 11 -6 19 -2 11 4 13 1 8
-13 -5 -15 -4 -17 8 -8 13 9 30 11 44 4 4 -2 22 -5 56 -9 8 -1 7 -7 -2 -18
-13 -16 -12 -17 3 -4 10 7 16 17 13 21 -3 5 0 10 6 12 6 2 12 18 14 36 1 17
-1 29 -6 27 -4 -3 -6 -14 -4 -25 2 -11 0 -22 -3 -24 -4 -3 -8 13 -7 34 0 21 3
36 8 33 12 -7 8 12 -5 26 -11 10 -10 11 5 5 13 -5 16 -2 11 10 -3 9 -9 14 -13
12 -4 -3 -7 6 -7 19 0 15 5 21 13 18 18 -7 16 2 -3 21 -14 15 -14 16 4 16 17
0 19 -8 18 -91 -1 -50 2 -93 7 -96 4 -2 4 -9 1 -15 -4 -7 -2 -8 4 -4 7 4 21 9
32 11 17 3 19 1 10 -15 -11 -20 3 -39 15 -20 9 14 27 2 19 -13 -3 -7 2 -3 10
7 12 15 16 16 16 5 0 -9 3 -10 8 -3 4 6 15 10 24 9 11 -2 15 2 11 13 -4 10 -2
13 5 8 6 -3 14 -1 18 5 4 7 3 9 -3 6 -6 -4 -16 0 -23 8 -9 11 -9 19 3 35 7 11
16 18 18 15 3 -2 5 6 5 20 0 13 -4 21 -8 19 -5 -3 -6 -9 -3 -14 3 -4 -1 -13
-9 -19 -11 -9 -13 -6 -11 20 2 25 7 33 24 34 21 2 22 -2 20 -53 -2 -47 0 -56
17 -62 10 -4 22 -6 25 -4 4 2 6 -4 5 -14 0 -10 6 -16 17 -16 9 1 17 -3 17 -10
0 -6 4 -5 9 3 8 12 12 12 24 2 13 -10 17 -9 26 6 10 17 10 17 11 -2 1 -18 2
-18 10 2 6 14 16 22 27 20 28 -4 44 -17 36 -30 -5 -9 -3 -9 8 0 11 9 19 9 26
2 7 -7 12 -6 16 4 4 10 -2 13 -19 11 -13 -1 -22 2 -18 7 3 5 10 7 15 3 5 -3
17 0 26 8 14 10 15 10 9 0 -10 -16 24 -13 37 3 5 6 7 4 4 -5 -2 -8 -10 -15
-17 -15 -7 0 -15 -7 -17 -15 -3 -9 -1 -11 4 -5 4 6 14 11 21 13 11 2 47 9 62
11 3 1 -2 6 -10 11 -9 6 -10 10 -3 10 6 0 15 -5 18 -10 4 -6 12 -7 18 -4 7 4
8 3 4 -2 -5 -5 -13 -9 -19 -9 -6 0 -12 -8 -14 -18 -2 -14 1 -15 10 -8 7 6 17
7 21 3 5 -4 5 -1 1 6 -7 11 12 18 38 13 5 -1 3 6 -5 15 -8 9 -13 19 -11 21 8
11 0 33 -10 27 -9 -5 -9 -3 0 7 11 12 15 11 27 -4 12 -17 13 -16 11 6 -1 17
-5 23 -16 19 -13 -5 -13 -4 0 10 17 18 26 9 34 -36 6 -34 6 -34 37 -40 13 -2
25 -5 27 -5 1 -1 -3 -11 -9 -23 -9 -19 -9 -21 2 -10 7 6 17 12 22 12 4 0 5 -6
1 -12 -6 -10 -4 -10 7 0 19 18 42 15 35 -4 -5 -14 -4 -15 8 -5 8 7 21 9 27 5
8 -5 9 -3 3 7 -12 20 -14 38 -3 45 5 3 9 10 9 15 0 6 -4 8 -8 5 -4 -2 -7 10
-7 27 1 18 -4 35 -9 39 -7 5 -6 8 3 8 9 0 10 4 4 13 -5 6 -10 26 -12 42 -2 17
-7 35 -11 40 -5 6 -5 17 0 25 14 21 12 32 -2 24 -10 -5 -10 -4 -1 6 10 11 9
16 -5 27 -14 12 -14 14 -1 10 13 -4 15 2 14 34 -1 22 -8 45 -15 52 -10 9 -11
9 -5 -2 11 -19 14 -72 4 -66 -4 3 -6 14 -4 25 2 11 0 20 -5 20 -4 0 -7 8 -6
18 2 9 0 29 -5 44 -5 20 -4 25 6 22 17 -7 13 25 -4 35 -10 6 -9 12 4 25 19 19
6 22 -14 4 -11 -11 -13 -9 -8 10 3 12 1 22 -4 22 -5 0 -9 7 -9 15 0 12 -18 15
-105 15 -93 0 -105 -2 -106 -17 0 -10 -2 -27 -4 -38 -4 -23 -12 -79 -21 -150
-3 -27 -11 -56 -18 -64 -7 -10 -7 -13 0 -8 15 9 5 -45 -10 -56 -8 -6 -7 -10 2
-14 6 -2 10 -8 8 -11 -2 -4 -7 -32 -11 -62 -4 -30 -11 -59 -17 -65 -6 -7 -9
-3 -6 10 2 17 -3 21 -37 23 -22 2 -45 8 -52 14 -13 10 -13 42 0 54 3 4 4 -5 1
-19 -5 -28 10 -45 22 -26 4 7 3 9 -4 5 -7 -4 -10 1 -9 14 1 11 6 20 12 20 5 0
4 4 -3 9 -11 6 -10 11 3 25 20 19 39 11 30 -13 -5 -13 -4 -14 7 -3 10 10 10
17 -1 35 -12 19 -12 20 0 10 21 -17 41 -1 44 36 1 17 -1 28 -6 25 -5 -3 -7 -9
-5 -13 3 -4 1 -13 -4 -21 -6 -10 -8 -3 -6 23 2 20 0 40 -5 43 -5 3 -7 10 -4
15 5 8 -38 14 -48 7 -7 -5 -37 25 -37 36 0 6 5 4 10 -4 8 -13 10 -13 11 3 1 9
3 22 4 27 1 6 3 12 4 15 0 3 11 0 24 -6 18 -9 20 -9 10 2 -18 18 -16 34 1 17
8 -8 16 -23 19 -34 4 -17 5 -17 6 -1 1 11 6 15 13 11 7 -5 8 -3 3 7 -14 22
-13 46 2 46 16 0 17 -9 1 -26 -11 -11 -9 -11 9 0 15 9 19 17 13 25 -6 6 -7 14
-3 18 4 4 -1 4 -12 0 -18 -7 -19 -6 -5 11 9 11 10 16 3 11 -8 -4 -13 -2 -14 6
-1 7 -2 20 -3 28 -1 12 -23 16 -123 18 l-123 3 -1 -33 c-1 -18 -1 -104 -1
-192 1 -87 -2 -155 -5 -152 -3 3 -12 1 -20 -6 -7 -6 -17 -8 -20 -4 -4 4 -3 10
3 14 11 7 15 42 5 39 -3 -1 -6 1 -6 5 0 4 -9 14 -20 22 -12 9 -15 15 -7 16 7
0 11 4 7 9 -3 5 -1 12 4 15 5 4 13 1 17 -5 5 -8 3 -9 -6 -4 -9 5 -11 4 -6 -4
10 -16 26 -4 19 14 -4 11 0 14 13 9 15 -5 16 -4 5 4 -8 6 -23 9 -34 7 -15 -3
-16 -1 -8 9 7 8 22 12 34 9 13 -3 18 -1 12 4 -16 13 -20 67 -4 58 8 -5 10 -4
5 4 -6 9 -11 9 -22 0 -7 -6 -11 -16 -7 -22 3 -6 1 -7 -6 -3 -9 6 -9 11 -1 21
6 7 8 21 4 31 -5 16 -4 16 5 4 9 -12 11 -12 11 -1 0 8 -8 20 -17 28 -10 8 -12
12 -6 8 9 -4 11 -1 7 9 -3 9 -10 16 -15 16 -5 0 -9 6 -9 13 0 7 -17 23 -37 34
-31 16 -59 21 -153 22 l-115 2 -12 -30z m192 -147 c-2 -10 -4 -22 -4 -26 -1
-5 -6 -8 -12 -8 -5 0 -7 5 -4 10 3 6 1 10 -6 10 -7 0 -4 6 7 14 10 8 16 18 11
22 -4 4 -7 2 -7 -4 0 -7 -5 -12 -10 -12 -6 0 -5 8 2 20 15 23 29 7 23 -26z
m640 -55 c-4 -5 -3 -15 1 -21 5 -7 9 -26 10 -43 1 -16 3 -37 5 -45 3 -9 -4
-15 -18 -16 -12 -1 -20 3 -17 8 3 4 9 6 14 3 4 -3 7 2 6 10 -3 19 -16 32 -16
15 0 -7 -3 -11 -6 -8 -3 4 2 20 10 37 9 17 12 32 7 36 -6 3 -9 14 -8 25 1 10
5 16 9 14 5 -3 6 -10 3 -15z m-652 -120 c-8 -8 -13 -7 -18 2 -5 8 -4 10 3 5 7
-4 12 -2 12 5 0 7 3 9 7 6 4 -4 2 -12 -4 -18z m377 -9 c0 -5 -4 -10 -10 -10
-5 0 -10 5 -10 10 0 6 5 10 10 10 6 0 10 -4 10 -10z m-172 -56 c-4 -22 -28
-31 -28 -10 0 9 5 16 12 16 6 0 8 3 4 7 -4 5 -14 -1 -22 -11 -8 -11 -14 -16
-14 -11 0 5 8 17 17 27 19 21 37 11 31 -18z m-68 -164 c0 -4 -10 -6 -22 -6
-13 1 -30 -3 -38 -8 -12 -9 -13 -8 -3 4 12 15 63 24 63 10z m140 0 c0 -5 -5
-10 -11 -10 -5 0 -7 5 -4 10 3 6 8 10 11 10 2 0 4 -4 4 -10z m57 -12 c-3 -8
-6 -5 -6 6 -1 11 2 17 5 13 3 -3 4 -12 1 -19z m463 17 c0 -7 -30 -13 -34 -7
-3 4 4 9 15 9 10 1 19 0 19 -2z"/>
<path d="M1829 1803 c0 -32 0 -111 1 -176 1 -84 -3 -123 -12 -135 -10 -12 -10
-14 0 -8 7 4 12 1 12 -9 0 -9 -4 -14 -9 -10 -5 3 -13 1 -16 -5 -4 -6 -1 -9 6
-8 7 2 15 -5 17 -14 2 -13 -1 -16 -15 -12 -17 5 -17 5 1 -6 15 -10 16 -14 5
-21 -12 -7 -11 -9 1 -9 13 0 13 -1 0 -10 -10 -6 -11 -10 -2 -10 6 0 12 -5 12
-11 0 -5 -5 -7 -11 -3 -7 4 -7 -1 1 -15 9 -17 9 -26 -1 -37 -9 -11 -9 -14 0
-14 7 0 10 -4 7 -8 -3 -5 10 -7 29 -6 28 3 33 0 29 -14 -5 -13 -4 -14 4 -3 12
16 35 5 25 -12 -5 -9 -3 -9 8 0 8 6 17 12 21 13 38 9 47 14 42 22 -3 5 -13 4
-22 -4 -15 -11 -15 -11 -5 3 7 9 11 18 8 21 -3 2 2 5 10 5 8 0 15 -5 15 -10 0
-6 2 -8 5 -5 8 8 -6 39 -15 33 -15 -10 -19 24 -4 36 14 12 14 14 -2 26 -10 7
-13 13 -7 13 6 0 9 9 6 20 -3 11 -1 20 5 20 6 0 9 -11 7 -25 -1 -14 2 -25 6
-25 16 0 9 -29 -8 -40 -16 -10 -16 -10 2 -8 14 2 21 -3 23 -18 2 -14 15 -25
35 -33 l32 -11 -35 5 c-25 4 -31 2 -20 -5 8 -5 24 -10 35 -10 12 0 27 -6 35
-12 11 -10 11 -9 0 6 -14 18 -14 19 8 7 12 -6 22 -10 23 -9 8 33 6 38 -14 34
-18 -5 -18 -4 3 7 14 6 26 20 26 30 2 13 -1 15 -10 8 -9 -8 -13 -7 -13 4 0 7
5 13 10 12 5 -1 12 4 15 12 3 8 0 11 -7 7 -7 -5 -9 -1 -5 8 10 27 21 18 22
-16 0 -18 0 -40 1 -48 1 -17 71 -43 71 -27 0 6 3 8 6 4 14 -14 -7 -27 -27 -16
-12 6 -24 8 -27 4 -3 -3 4 -8 16 -12 12 -3 22 -10 22 -17 0 -6 5 -4 10 4 9 13
12 12 25 -4 8 -11 15 -14 15 -8 0 7 6 12 14 12 8 0 18 5 22 12 4 6 3 8 -2 5
-6 -3 -10 6 -11 21 0 15 1 20 4 10 2 -9 11 -19 19 -22 11 -4 12 -2 4 14 -13
25 -13 33 2 24 7 -4 8 -3 4 5 -4 6 -11 9 -16 6 -5 -3 -11 -1 -14 4 -4 5 -2 12
3 16 6 3 8 12 4 20 -3 8 0 15 7 15 6 0 8 -5 4 -12 -4 -7 -3 -8 4 -4 6 4 9 13
6 20 -3 8 0 17 5 21 13 8 5 25 -12 25 -8 0 -8 -3 1 -9 10 -6 10 -10 -3 -21 -8
-7 -18 -10 -22 -6 -3 3 -1 6 5 6 7 0 12 5 12 11 0 5 -6 7 -12 3 -10 -6 -10 -5
-1 8 7 8 9 19 5 23 -4 5 -1 5 6 1 6 -4 12 -2 12 4 0 6 5 8 12 4 7 -4 8 -3 4 4
-4 6 -14 8 -24 5 -14 -6 -15 -4 -4 9 9 11 10 18 2 23 -5 3 -10 1 -10 -6 0 -7
-3 -9 -6 -6 -4 4 -2 12 4 19 17 22 18 24 2 43 -8 11 -10 16 -4 12 7 -4 15 0
18 9 5 12 2 15 -10 10 -14 -5 -15 -4 -4 9 7 8 17 12 23 8 6 -3 7 -1 3 6 -4 6
-11 9 -16 6 -5 -3 -11 -1 -14 4 -4 5 -2 12 3 15 5 3 7 15 4 26 -3 11 0 20 6
20 6 0 8 -8 4 -17 -7 -19 -5 -18 17 10 7 10 9 17 4 16 -20 -4 -39 2 -29 9 6 4
17 16 25 27 l15 20 -24 -20 c-20 -17 -23 -17 -18 -3 3 9 3 19 -1 21 -4 2 -2 3
4 1 6 -1 16 7 22 17 10 16 10 21 -2 25 -8 3 -19 3 -25 0 -11 -7 -9 13 3 33 6
10 5 12 -2 7 -8 -5 -12 0 -12 13 0 20 -6 21 -95 21 -84 0 -95 -2 -96 -17 0
-10 -2 -27 -5 -38 -2 -11 -5 -33 -6 -48 -3 -35 -12 -42 -28 -22 -7 8 -9 15 -6
15 4 0 2 10 -5 22 -10 19 -9 20 7 14 16 -6 15 -4 -3 14 -13 11 -23 30 -23 40
0 18 -7 20 -95 20 l-95 0 -1 -57z m486 -33 c-3 -5 -11 -10 -16 -10 -6 0 -7 5
-4 10 3 6 11 10 16 10 6 0 7 -4 4 -10z m-248 -81 c-1 -10 -5 -19 -10 -19 -5 0
-7 6 -4 14 3 7 0 19 -6 25 -9 9 -8 11 5 6 9 -4 16 -15 15 -26z m-79 -234 c-3
-3 -9 2 -12 12 -6 14 -5 15 5 6 7 -7 10 -15 7 -18z m158 -15 c2 -21 0 -29 -6
-21 -4 8 -7 21 -5 30 1 9 -3 20 -9 24 -7 6 -6 7 3 5 8 -3 16 -19 17 -38z
m-267 -150 c-10 -7 -49 -2 -49 5 0 2 14 3 31 3 17 -1 25 -4 18 -8z m62 -17 c9
-9 7 -11 -5 -9 -9 1 -21 7 -27 13 -9 9 -7 11 5 9 9 -1 21 -7 27 -13z m321 8
c8 11 9 11 6 1 -4 -16 -22 -18 -24 -2 -2 7 -1 6 3 -1 4 -8 8 -7 15 2z"/>
<path d="M740 1719 c-7 -11 -9 -23 -6 -27 3 -3 6 0 6 7 0 7 5 9 12 5 7 -5 8
-3 3 6 -6 10 -4 12 10 6 15 -5 16 -4 5 9 -16 19 -17 19 -30 -6z"/>
<path d="M1770 1706 c0 -8 4 -17 9 -20 5 -4 7 3 4 14 -6 23 -13 26 -13 6z"/>
<path d="M710 1680 c0 -5 5 -10 11 -10 5 0 7 5 4 10 -3 6 -8 10 -11 10 -2 0
-4 -4 -4 -10z"/>
<path d="M2296 1632 c-2 -4 4 -8 14 -8 10 0 16 4 14 8 -3 4 -9 8 -14 8 -5 0
-11 -4 -14 -8z"/>
<path d="M709 1593 c-13 -16 -12 -17 4 -4 9 7 17 15 17 17 0 8 -8 3 -21 -13z"/>
<path d="M705 1540 c-3 -6 1 -7 9 -4 18 7 21 14 7 14 -6 0 -13 -4 -16 -10z"/>
<path d="M1786 1511 c-4 -5 -2 -12 3 -15 5 -4 12 -2 15 3 4 5 2 12 -3 15 -5 4
-12 2 -15 -3z"/>
<path d="M2308 1513 c7 -3 16 -2 19 1 4 3 -2 6 -13 5 -11 0 -14 -3 -6 -6z"/>
<path d="M700 1460 c-6 -11 -7 -20 -2 -20 6 0 12 9 15 20 3 11 3 20 1 20 -2 0
-8 -9 -14 -20z"/>
<path d="M456 1453 c-6 -14 -5 -15 5 -6 7 7 10 15 7 18 -3 3 -9 -2 -12 -12z"/>
<path d="M253 1445 c0 -8 4 -12 9 -9 5 3 6 10 3 15 -9 13 -12 11 -12 -6z"/>
<path d="M450 1419 c0 -5 5 -7 10 -4 6 3 10 8 10 11 0 2 -4 4 -10 4 -5 0 -10
-5 -10 -11z"/>
<path d="M709 1353 c-13 -16 -12 -17 4 -4 9 7 17 15 17 17 0 8 -8 3 -21 -13z"/>
<path d="M2296 1351 c-4 -5 3 -7 14 -4 23 6 26 13 6 13 -8 0 -17 -4 -20 -9z"/>
<path d="M1145 1329 c-10 -15 3 -25 16 -12 7 7 7 13 1 17 -6 3 -14 1 -17 -5z"/>
<path d="M1670 1285 c0 -7 30 -13 34 -7 3 4 -4 9 -15 9 -10 1 -19 0 -19 -2z"/>
<path d="M196 1265 c4 -8 8 -15 10 -15 2 0 4 7 4 15 0 8 -4 15 -10 15 -5 0 -7
-7 -4 -15z"/>
<path d="M360 1270 c-8 -5 -12 -12 -9 -15 4 -3 12 1 19 10 14 17 11 19 -10 5z"/>
<path d="M870 1270 c0 -5 5 -10 11 -10 5 0 7 5 4 10 -3 6 -8 10 -11 10 -2 0
-4 -4 -4 -10z"/>
<path d="M1351 1262 c0 -11 2 -13 6 -4 4 10 8 9 17 -3 11 -15 12 -14 13 2 1
12 -6 19 -18 20 -12 1 -19 -4 -18 -15z"/>
<path d="M226 1258 c3 -4 9 -8 15 -8 5 0 9 4 9 8 0 5 -7 9 -15 9 -8 0 -12 -4
-9 -9z"/>
<path d="M1520 1260 c-9 -6 -10 -10 -3 -10 6 0 15 5 18 10 8 12 4 12 -15 0z"/>
<path d="M1833 1199 c-65 -32 -79 -70 -78 -216 0 -70 -4 -119 -9 -116 -5 4 -5
0 -1 -8 5 -7 9 -35 10 -61 1 -51 33 -128 53 -128 6 0 12 -4 12 -10 0 -5 7 -10
16 -10 8 0 12 -4 9 -10 -4 -6 6 -8 24 -6 17 2 28 -1 25 -6 -3 -5 -13 -7 -23
-3 -11 4 -13 3 -6 -4 6 -6 25 -13 43 -15 29 -3 32 -1 27 18 -2 11 -2 16 1 9 3
-6 16 -9 30 -7 13 2 24 0 24 -5 0 -6 -9 -8 -20 -6 -11 2 -20 -1 -20 -7 0 -5 7
-8 15 -5 8 4 17 2 20 -3 4 -6 12 -10 18 -10 7 0 6 4 -3 10 -11 7 -12 10 -2 10
8 0 22 10 31 21 15 19 20 20 40 9 13 -6 21 -8 17 -2 -3 5 0 15 8 21 8 7 13 25
12 41 -1 17 2 30 7 30 6 0 3 8 -6 18 -13 14 -14 21 -5 30 10 10 10 17 1 31
-10 15 -9 20 2 25 9 3 12 0 9 -8 -3 -8 -2 -16 3 -19 4 -3 8 8 8 23 1 16 -3 26
-7 24 -9 -6 -10 -1 -10 49 -1 17 -5 37 -9 43 -5 6 -3 11 6 11 8 0 11 -5 8 -10
-3 -6 -2 -7 4 -4 5 3 9 23 7 44 -1 21 3 44 10 52 9 12 8 12 -10 3 -18 -10 -20
-8 -18 19 1 16 -3 29 -9 29 -6 0 -7 3 -4 7 4 3 2 12 -4 20 -9 9 -8 13 0 13 21
0 -68 71 -101 80 -53 16 -110 12 -155 -11z m105 -156 c-6 -7 -6 -13 -2 -13 14
0 10 -64 -4 -73 -8 -5 -17 -6 -20 -2 -4 4 -1 10 6 12 6 3 12 14 12 26 0 18 -2
19 -10 7 -6 -9 -10 -10 -10 -3 0 6 5 15 11 19 8 4 7 9 -2 15 -11 6 -11 11 -2
20 6 6 9 19 6 28 -4 11 -1 10 10 -4 11 -14 12 -24 5 -32z m178 -48 c1 -8 -1
-17 -5 -19 -4 -3 -7 6 -7 19 0 25 8 25 12 0z m-171 -77 c0 -32 -20 -57 -33
-43 -4 4 -1 10 6 12 6 3 12 14 12 26 0 18 -2 19 -10 7 -5 -8 -10 -10 -10 -4 0
11 20 34 30 34 3 0 5 -15 5 -32z m-1 -103 c-2 -62 -11 -82 -27 -66 -8 8 -8 14
1 23 7 7 12 19 12 28 0 13 -1 13 -10 0 -6 -9 -10 -10 -10 -3 0 6 5 15 10 18 6
3 10 14 10 23 0 15 -2 15 -10 2 -5 -8 -10 -10 -10 -4 0 11 20 34 30 34 3 0 5
-25 4 -55z m153 -125 c-4 -24 -27 -51 -27 -32 0 7 5 12 10 12 6 0 9 3 9 8 -2
14 1 32 6 32 3 0 3 -9 2 -20z m-84 -55 c-3 -9 -8 -14 -10 -11 -3 3 -2 9 2 15
9 16 15 13 8 -4z"/>
<path d="M430 930 l0 -280 23 -2 c12 0 27 -1 33 -1 6 0 9 -8 6 -19 -4 -18 -5
-18 -18 -1 -13 16 -13 14 -2 -10 l12 -28 13 23 c7 13 13 19 13 13 0 -5 5 -3
10 5 7 11 10 11 10 2 0 -7 5 -10 12 -6 7 4 8 3 4 -5 -4 -6 -11 -9 -16 -6 -5 3
-11 1 -15 -4 -3 -6 4 -8 17 -5 13 3 31 6 40 6 9 -1 19 6 22 14 3 8 13 11 23 8
15 -5 15 -4 3 5 -10 7 -19 6 -31 -5 -14 -13 -18 -12 -30 3 -13 16 -12 17 3 5
22 -17 29 -3 24 47 -2 27 0 39 7 34 7 -4 8 0 2 13 -12 28 -8 93 7 112 11 14
10 15 -7 8 -15 -5 -17 -4 -8 5 22 22 29 -1 28 -93 -2 -108 1 -118 26 -118 11
0 22 -7 25 -15 4 -8 10 -12 15 -9 5 3 9 1 9 -3 0 -5 9 -14 21 -21 12 -8 19
-10 16 -5 -5 9 12 27 31 31 7 1 12 -6 13 -15 0 -12 4 -8 11 10 5 15 14 27 19
27 12 0 11 -14 -2 -27 -8 -8 -7 -13 2 -18 7 -5 10 -4 5 3 -3 6 -2 13 3 16 5 3
12 -1 15 -9 4 -12 10 -13 24 -6 10 5 24 6 33 1 9 -5 21 -4 29 2 12 8 12 9 -3
4 -11 -3 -16 -2 -12 4 3 6 13 10 21 10 13 0 18 12 15 33 -1 4 9 3 21 -4 l23
-12 -23 25 c-23 26 -21 41 5 31 13 -5 14 -2 4 18 -11 22 -11 22 3 6 8 -10 18
-19 22 -20 5 -1 9 -16 8 -33 0 -26 3 -30 19 -26 14 3 18 1 13 -6 -5 -8 -2 -10
8 -6 10 4 16 1 16 -9 0 -19 23 -28 41 -15 11 8 11 9 -3 5 -9 -3 -19 1 -22 8
-4 11 0 12 17 6 12 -4 29 -6 37 -4 13 4 13 3 0 -6 -11 -8 -12 -11 -2 -11 16 0
43 25 36 33 -8 7 36 1 59 -8 15 -6 15 -10 5 -24 -12 -14 -11 -15 5 -2 9 7 17
10 17 6 0 -4 8 -1 17 6 11 10 14 10 9 2 -5 -9 -1 -13 13 -13 10 0 22 6 24 13
4 9 6 9 6 -1 1 -7 6 -10 11 -7 8 5 7 12 -2 23 -11 15 -11 15 3 5 9 -7 20 -9
24 -5 5 4 5 1 1 -5 -9 -17 6 -17 23 0 9 7 11 7 8 1 -4 -7 0 -15 9 -18 8 -3 13
-2 10 2 -2 4 0 14 6 22 8 12 9 12 4 -2 -3 -10 -1 -18 5 -18 6 0 7 -4 4 -10 -3
-5 -2 -10 4 -10 5 0 12 6 14 13 4 9 8 8 16 -3 9 -12 11 -9 12 15 0 26 2 27 9
10 5 -11 9 -14 9 -7 1 7 5 11 10 7 15 -8 21 9 9 25 -8 12 -8 11 -3 -5 4 -14 3
-17 -5 -9 -6 6 -8 18 -4 28 6 15 7 15 19 -1 8 -10 17 -15 21 -10 4 4 2 7 -6 7
-10 0 -10 4 1 17 10 11 10 14 2 9 -7 -4 -13 -2 -13 3 0 6 5 11 10 11 6 0 10 5
10 11 0 5 -4 8 -9 5 -5 -3 -11 3 -14 13 -3 14 -1 18 9 14 8 -3 14 0 14 6 0 6
-4 11 -9 11 -5 0 -11 7 -14 14 -4 10 -1 13 9 9 19 -7 18 7 -2 22 -15 11 -14
14 7 34 17 16 19 20 7 16 -10 -4 -18 -3 -18 3 0 6 8 13 18 15 16 4 16 5 0 6
-23 1 -23 10 -1 27 17 13 17 14 1 8 -10 -3 -18 -1 -18 5 0 6 8 11 18 12 14 0
14 2 -3 9 -14 6 -15 9 -5 10 10 1 9 4 -5 10 -18 7 -19 8 -2 15 20 9 23 30 3
22 -10 -4 -13 -1 -9 9 3 9 12 13 21 9 12 -4 13 -3 2 10 -7 8 -17 12 -23 8 -6
-3 -7 -1 -3 6 4 6 12 9 17 6 5 -3 6 2 2 11 -5 13 -3 15 8 9 12 -7 12 -6 -1 11
-22 29 -24 30 -17 12 3 -10 3 -19 -1 -22 -4 -2 -9 7 -10 22 -1 15 -10 38 -20
52 -33 46 -71 57 -201 59 l-121 2 -1 -58 c0 -32 -1 -147 -2 -255 -1 -109 -5
-194 -10 -189 -11 11 -17 52 -6 46 5 -4 9 -1 9 4 0 6 -5 11 -11 11 -6 0 -9 6
-6 14 3 7 0 19 -6 26 -9 10 -9 11 1 6 8 -5 12 0 12 16 0 18 -2 20 -10 8 -5 -8
-10 -10 -10 -4 0 6 7 17 15 24 8 7 15 17 15 23 0 6 -6 3 -13 -8 -10 -12 -16
-14 -21 -7 -4 7 -2 12 3 12 6 0 11 5 11 11 0 5 -4 7 -10 4 -5 -3 -10 -2 -10 4
0 5 8 12 18 14 16 4 16 5 0 6 -10 0 -18 6 -18 12 0 5 4 8 8 5 4 -2 9 5 9 17 2
15 0 18 -6 9 -7 -11 -9 -11 -14 1 -3 9 1 18 9 21 12 5 12 9 2 25 -7 11 -14 18
-17 16 -2 -3 2 -11 9 -20 7 -8 8 -15 2 -15 -16 0 -23 31 -11 46 9 11 8 14 -1
14 -9 0 -9 4 1 17 12 14 12 16 -2 11 -11 -4 -15 0 -14 15 1 12 0 27 -4 32 -3
6 -6 12 -6 15 -1 3 -5 20 -9 38 l-8 32 -104 0 c-92 0 -104 -2 -105 -17 -2 -34
-8 -78 -18 -138 -5 -33 -13 -82 -16 -110 -3 -27 -8 -59 -10 -70 -2 -11 -4 -32
-4 -47 -1 -19 -6 -26 -19 -25 -14 1 -17 10 -17 43 0 23 -3 40 -7 37 -19 -11
-5 38 15 53 13 10 15 14 5 11 -9 -3 -22 0 -28 8 -9 11 -7 12 8 9 11 -3 24 2
33 13 13 16 12 17 -2 5 -14 -10 -18 -10 -23 3 -3 9 -2 13 4 10 6 -3 11 -1 11
4 3 21 4 26 13 39 7 11 4 12 -12 3 -19 -10 -19 -8 -12 24 6 28 4 37 -9 45 -9
5 -11 10 -4 10 15 0 -44 64 -72 78 -11 5 -73 11 -137 11 l-118 2 0 -281z m900
150 c0 -5 -5 -10 -11 -10 -5 0 -7 5 -4 10 3 6 8 10 11 10 2 0 4 -4 4 -10z
m-714 -40 c-1 -16 -7 -34 -13 -40 -7 -5 -11 -7 -8 -4 3 4 0 13 -6 20 -9 10 -7
15 4 20 9 3 13 12 10 20 -3 8 -1 14 4 14 5 0 9 -13 9 -30z m732 -4 c0 -32 -21
-56 -36 -41 -3 2 3 7 12 11 9 3 16 10 16 16 0 5 -4 7 -9 3 -5 -3 -13 0 -17 6
-5 8 -3 9 6 4 10 -6 12 -4 7 9 -4 10 -3 15 3 11 6 -3 10 -1 10 4 0 6 2 11 4
11 2 0 4 -15 4 -34z m-1 -86 c1 -25 -3 -40 -10 -40 -8 0 -9 -3 -1 -8 6 -4 11
-37 11 -74 0 -38 -3 -66 -5 -63 -3 3 -12 -1 -21 -7 -13 -10 -14 -10 -4 2 10
11 10 17 0 29 -10 12 -9 13 2 6 11 -6 13 -4 8 8 -4 10 -1 17 6 18 7 0 3 4 -8
9 l-20 9 20 0 c16 1 17 3 6 10 -8 5 -16 17 -17 25 -1 9 2 14 7 10 5 -3 9 -1 9
5 0 5 -5 13 -11 16 -7 5 -5 15 6 31 8 13 12 24 8 23 -20 -3 -24 2 -13 16 19
23 25 18 27 -25z m-381 4 c-3 -7 -1 -16 3 -19 5 -3 8 -21 7 -40 -1 -19 3 -35
8 -35 5 0 7 -3 4 -6 -7 -6 -48 17 -48 28 0 4 8 4 18 1 15 -6 15 -5 3 11 -13
15 -13 19 0 27 13 8 5 14 -15 10 -5 -1 -4 5 3 13 7 8 9 21 5 27 -5 8 -3 9 5 5
7 -5 10 -14 7 -22z m-218 -31 c-6 -7 -12 -13 -13 -13 -2 0 -5 6 -8 13 -3 7 3
13 14 13 13 0 15 -3 7 -13z m46 -145 c-8 -13 -14 -41 -15 -70 0 -10 -4 -20 -8
-23 -9 -5 -6 31 5 59 5 13 4 17 -3 13 -7 -5 -9 0 -6 13 3 11 12 20 20 20 9 0
11 -5 7 -12z m-14 -138 c0 -5 -7 -7 -15 -4 -8 4 -15 8 -15 10 0 2 7 4 15 4 8
0 15 -4 15 -10z m55 0 c-3 -5 7 -8 25 -5 17 2 28 0 24 -6 -3 -5 -10 -7 -15 -3
-5 3 -16 1 -23 -5 -10 -9 -15 -8 -19 3 -3 8 -3 17 0 20 10 9 15 7 8 -4z m453
-15 c-3 -3 -9 2 -12 12 -6 14 -5 15 5 6 7 -7 10 -15 7 -18z m162 16 c0 -5 -7
-11 -14 -14 -10 -4 -13 -1 -9 9 6 15 23 19 23 5z m-720 -9 c0 -13 -12 -22 -22
-16 -10 6 -1 24 13 24 5 0 9 -4 9 -8z"/>
<path d="M1549 1128 c-1 -46 -2 -133 -2 -194 0 -107 -1 -111 -21 -107 -20 3
-20 3 -1 -5 16 -7 20 -20 22 -87 1 -42 4 -79 6 -81 2 -2 13 -5 26 -7 12 -2 30
-10 39 -18 9 -8 26 -14 37 -15 12 0 19 -6 17 -14 -3 -11 1 -10 16 3 10 9 22
14 26 10 4 -5 7 -3 6 2 -1 6 -2 12 0 15 7 21 7 60 -1 60 -6 0 -7 -6 -3 -12 4
-7 4 -10 -1 -6 -11 10 -13 108 -3 102 5 -3 6 -9 3 -14 -3 -4 3 -14 12 -21 15
-12 16 -12 8 1 -15 25 -17 52 -3 44 9 -5 9 -2 -1 9 -7 9 -10 17 -7 17 4 0 0
10 -8 22 -20 28 -20 38 0 38 8 0 12 5 9 10 -4 6 -12 7 -18 3 -9 -5 -9 -3 0 8
8 9 9 20 3 29 -14 22 -12 30 6 30 8 0 12 5 9 10 -4 6 -10 8 -14 6 -4 -3 -7 8
-6 23 0 17 4 27 11 24 7 -2 15 1 20 8 4 8 3 10 -4 5 -7 -4 -12 -2 -12 4 0 6
-4 9 -9 5 -6 -3 -8 4 -6 16 3 13 10 26 16 29 16 11 16 20 -3 31 -10 5 -14 17
-11 29 3 11 1 20 -4 20 -6 0 -9 11 -8 25 3 25 2 25 -71 25 l-74 0 -1 -82z
m168 -323 c0 -8 -4 -12 -9 -9 -5 3 -6 10 -3 15 9 13 12 11 12 -6z m-12 -175
c-14 -15 -21 -17 -36 -7 -10 6 -16 13 -14 16 3 2 10 -1 17 -7 15 -11 42 10 30
24 -4 4 -1 4 6 0 11 -6 10 -12 -3 -26z"/>
<path d="M1090 1140 c-9 -6 -10 -10 -3 -10 6 0 15 5 18 10 8 12 4 12 -15 0z"/>
<path d="M1095 1111 c-3 -5 -2 -12 3 -15 5 -3 9 1 9 9 0 17 -3 19 -12 6z"/>
<path d="M1715 1060 c-3 -5 -1 -10 4 -10 6 0 11 5 11 10 0 6 -2 10 -4 10 -3 0
-8 -4 -11 -10z"/>
<path d="M1731 984 c0 -11 3 -14 6 -6 3 7 2 16 -1 19 -3 4 -6 -2 -5 -13z"/>
<path d="M2116 882 c-3 -5 1 -9 9 -9 8 0 12 4 9 9 -3 4 -7 8 -9 8 -2 0 -6 -4
-9 -8z"/>
<path d="M775 840 c3 -5 8 -10 11 -10 2 0 4 5 4 10 0 6 -5 10 -11 10 -5 0 -7
-4 -4 -10z"/>
<path d="M595 801 c-3 -5 -2 -12 3 -15 5 -3 9 1 9 9 0 17 -3 19 -12 6z"/>
<path d="M2111 776 c-8 -10 -9 -16 -1 -21 5 -3 10 -5 11 -3 4 18 7 38 4 38 -1
0 -8 -6 -14 -14z"/>
<path d="M1716 717 c3 -10 9 -15 12 -12 3 3 0 11 -7 18 -10 9 -11 8 -5 -6z"/>
<path d="M947 689 c7 -7 15 -10 18 -7 3 3 -2 9 -12 12 -14 6 -15 5 -6 -5z"/>
<path d="M936 634 c-8 -21 -8 -24 5 -24 5 0 8 4 5 9 -4 5 -1 11 6 13 8 3 9 6
1 11 -6 4 -14 0 -17 -9z"/>
<path d="M646 623 c-6 -14 -5 -15 5 -6 7 7 10 15 7 18 -3 3 -9 -2 -12 -12z"/>
<path d="M1160 625 c-7 -9 -8 -15 -2 -15 5 0 12 7 16 15 3 8 4 15 2 15 -2 0
-9 -7 -16 -15z"/>
<path d="M1574 624 c-10 -9 -13 -13 -6 -9 7 4 20 1 28 -6 8 -6 17 -9 21 -5 3
3 1 6 -6 6 -7 0 -10 4 -6 9 10 17 -12 21 -31 5z"/>
<path d="M2037 633 c-4 -6 0 -13 8 -17 8 -3 17 0 21 6 4 6 3 8 -4 4 -5 -3 -12
-1 -14 6 -3 8 -6 9 -11 1z"/>
<path d="M1331 613 c-1 -16 16 -26 24 -13 5 8 12 7 23 -2 15 -12 16 -11 3 5
-10 12 -17 14 -26 7 -9 -8 -15 -7 -18 2 -4 9 -6 9 -6 1z"/>
</g>
</svg>
